<svg width="444" height="61" viewBox="0 0 444 61" fill="none" xmlns="http://www.w3.org/2000/svg">
<g clip-path="url(#clip0_5_3)">
<path d="M170.529 8.6048V25.2824H151.592V8.6048H141.16V52.3796H151.592V34.7789H170.529V52.3796H180.961V8.6048H180.429H170.529Z" fill="white"/>
<path d="M219.212 8.6048L208.294 25.9395L197.393 8.6048H185.081L203.094 37.2196V52.3796H213.51V37.2196L231.523 8.6048H230.568H219.212Z" fill="white"/>
<path d="M265.091 8.6048V40.6771C265.095 40.9686 265.04 41.258 264.929 41.5277C264.819 41.7975 264.655 42.0421 264.447 42.2468C264.239 42.4514 263.992 42.6119 263.72 42.7186C263.448 42.8253 263.158 42.8759 262.866 42.8674H246.153V8.6048H235.721V52.4109H266.547C267.747 52.5074 268.953 52.3427 270.083 51.9282C271.213 51.5136 272.239 50.859 273.091 50.0096C273.943 49.1603 274.6 48.1364 275.017 47.0086C275.434 45.8808 275.601 44.6761 275.507 43.4776V8.6048H265.091Z" fill="white"/>
<path d="M316.013 8.60479H285.171V52.4109H295.603V18.0857H312.348C312.637 18.0815 312.925 18.1352 313.194 18.2436C313.463 18.352 313.707 18.5129 313.913 18.7169C314.119 18.921 314.282 19.1639 314.392 19.4317C314.502 19.6994 314.558 19.9864 314.556 20.276V52.3796H324.972V17.5694C325.033 16.3745 324.851 15.1798 324.44 14.0563C324.028 12.9328 323.394 11.9035 322.576 11.0298C321.702 10.205 320.67 9.565 319.542 9.14829C318.414 8.73159 317.214 8.54672 316.013 8.60479V8.60479Z" fill="white"/>
<path d="M365.478 8.60476H334.637V52.4109H365.478C366.675 52.4961 367.875 52.3219 368.998 51.9002C370.121 51.4784 371.139 50.8192 371.982 49.9677C372.826 49.1162 373.475 48.0925 373.885 46.9668C374.296 45.8412 374.458 44.6402 374.36 43.4463V17.5694C374.441 16.3646 374.274 15.156 373.87 14.0179C373.466 12.8798 372.833 11.8363 372.01 10.9515C371.135 10.1424 370.106 9.51756 368.983 9.11437C367.861 8.71118 366.669 8.53786 365.478 8.60476V8.60476ZM364.006 20.3385V40.6771C364.01 40.966 363.957 41.2529 363.85 41.5213C363.742 41.7896 363.583 42.0341 363.38 42.2406C363.178 42.4471 362.937 42.6116 362.67 42.7245C362.404 42.8375 362.118 42.8967 361.829 42.8987H345.053V18.0857H361.719C362.021 18.0702 362.323 18.1177 362.605 18.2251C362.887 18.3324 363.144 18.4973 363.359 18.7092C363.574 18.9211 363.743 19.1754 363.854 19.4559C363.966 19.7364 364.017 20.037 364.006 20.3385Z" fill="white"/>
<path d="M392.608 8.60476C391.409 8.54428 390.21 8.72808 389.085 9.14497C387.959 9.56186 386.93 10.2031 386.06 11.0297C385.235 11.8991 384.595 12.9273 384.181 14.0516C383.766 15.1759 383.585 16.3728 383.648 17.5694V52.3796H394.049V38.8466H413.002V52.3796H423.418V8.60476H392.608ZM412.97 18.0856V29.3657H394.018V20.3385C394.013 20.0402 394.069 19.744 394.182 19.4677C394.295 19.1914 394.462 18.9407 394.674 18.7304C394.886 18.5202 395.138 18.3547 395.416 18.2439C395.693 18.1331 395.99 18.0793 396.289 18.0856H412.97Z" fill="white"/>
<path d="M444.016 8.6048H433.584V52.3796H444.016V8.6048Z" fill="white"/>
<path d="M59.6313 61.0156C92.5248 61.0156 119.247 47.3575 119.247 30.5078C119.247 13.6581 92.5561 0 59.6313 0C26.7064 0 0 13.6581 0 30.4922C0 47.3262 26.6281 61.0156 59.6313 61.0156ZM70.8464 46.0433C69.8596 48.3275 68.1523 53.1931 64.2207 55.2113C62.9725 55.7878 61.6172 56.0969 60.2422 56.1187C59.9602 56.1187 59.7409 56.1187 59.6469 56.1187C49.5783 56.1951 39.5525 54.8037 29.8861 51.9885L29.5415 51.8633C28.7583 51.5973 28.3511 51.2375 28.3511 50.7838C28.3612 50.5975 28.4094 50.4153 28.493 50.2484C28.5765 50.0815 28.6935 49.9336 28.8367 49.8138L29.3849 49.3444C31.3272 47.6861 37.2637 43.368 48.5571 39.1126C53.1308 37.2564 57.8446 35.7655 62.6543 34.6538C65.5521 33.981 76.7516 32.2601 70.8464 46.0277V46.0433ZM100.983 15.2852C101.071 15.0881 101.21 14.9185 101.387 14.7944C101.563 14.6704 101.77 14.5967 101.986 14.5812C102.432 14.573 102.869 14.7164 103.223 14.9879C110.225 19.2903 114.376 24.6566 114.376 30.4765C114.376 41.0056 100.842 50.0328 81.482 53.9441C80.2446 54.1944 79.4144 54.1788 79.1324 53.9441C78.8505 53.7094 78.8818 53.4122 79.1324 53.0054C79.2796 52.7484 79.4528 52.5073 79.6493 52.2857C90.1909 39.8792 98.2107 21.5745 100.498 16.3021C100.67 15.8797 100.842 15.5199 100.983 15.2852ZM48.5571 14.8941C49.5439 12.5943 51.2513 7.68171 55.1828 5.72608C56.4303 5.14737 57.786 4.83816 59.1614 4.81867C59.459 4.81867 59.6783 4.81867 59.7566 4.81867C69.825 4.74539 79.8504 6.13674 89.5174 8.94896L89.8307 9.07412C90.6295 9.34009 91.0368 9.69992 91.0368 10.1536C91.0284 10.338 90.9808 10.5185 90.897 10.6831C90.8133 10.8477 90.6954 10.9925 90.5512 11.108L90.003 11.593C88.139 13.2513 82.1712 17.5537 70.9404 21.903C66.3673 23.7648 61.6534 25.261 56.8432 26.3775C53.8827 26.9564 42.6519 28.6617 48.5571 14.8941ZM37.7649 6.97769C39.018 6.74301 39.8325 6.74301 40.1301 6.97769C40.2272 7.11498 40.2793 7.27895 40.2793 7.44704C40.2793 7.61513 40.2272 7.77909 40.1301 7.91639C39.9698 8.16849 39.7918 8.40897 39.5975 8.63606C29.056 21.1208 21.0362 39.4411 18.7963 44.7292C18.624 45.089 18.4517 45.4488 18.3107 45.6835C18.2255 45.8835 18.0869 46.0564 17.9102 46.1833C17.7335 46.3102 17.5253 46.3862 17.3083 46.4032C16.8629 46.4032 16.4292 46.2606 16.0708 45.9964C9.06922 41.694 4.91837 36.3121 4.91837 30.4922C4.87138 19.9787 18.4047 10.9515 37.7649 6.97769Z" fill="white"/>
</g>
<defs>
<clipPath id="clip0_5_3">
<rect width="444" height="61" fill="white"/>
</clipPath>
</defs>
</svg>
